<?xml version="1.0" standalone="no"?>
<!DOCTYPE svg PUBLIC "-//W3C//DTD SVG 20010904//EN"
 "http://www.w3.org/TR/2001/REC-SVG-20010904/DTD/svg10.dtd">
<svg version="1.0" xmlns="http://www.w3.org/2000/svg"
 width="2248.000000pt" height="2248.000000pt" viewBox="0 0 2248.000000 2248.000000"
 preserveAspectRatio="xMidYMid meet">
<metadata>
Created by potrace 1.14, written by Peter Selinger 2001-2017
</metadata>
<g transform="translate(0.000000,2248.000000) scale(0.100000,-0.100000)"
fill="#000000" stroke="none">
<path d="M0 11240 l0 -10690 11240 0 11240 0 0 10690 0 10690 -11240 0 -11240
0 0 -10690z m11865 10041 c943 -69 1708 -211 2566 -476 1324 -409 2628 -1126
3684 -2024 344 -293 785 -724 1054 -1031 875 -998 1526 -2110 1939 -3310 258
-748 415 -1484 486 -2280 54 -596 45 -1309 -24 -1925 -154 -1358 -593 -2648
-1313 -3860 -594 -999 -1427 -1949 -2367 -2701 -1623 -1299 -3615 -2097 -5710
-2289 -374 -34 -517 -39 -1015 -39 -498 0 -641 5 -1015 39 -1980 181 -3875
906 -5445 2084 -416 311 -736 590 -1125 980 -784 785 -1396 1635 -1879 2611
-666 1343 -1001 2768 -1001 4260 0 1308 259 2571 773 3770 408 953 974 1846
1688 2660 269 307 710 738 1054 1031 638 542 1372 1024 2140 1404 1332 657
2747 1024 4270 1104 210 11 1050 6 1240 -8z"/>
<path d="M10740 21044 c-398 -22 -625 -40 -900 -75 -3315 -411 -6218 -2362
-7757 -5214 -608 -1125 -979 -2371 -1088 -3645 -165 -1950 288 -3908 1295
-5589 1089 -1819 2736 -3244 4735 -4096 978 -416 2069 -691 3135 -789 379 -35
516 -41 1005 -41 581 0 868 17 1364 81 3149 402 5925 2193 7510 4842 665 1113
1097 2363 1255 3632 98 788 98 1553 1 2336 -343 2746 -1906 5221 -4305 6821
-1327 884 -2855 1452 -4461 1657 -198 26 -423 48 -674 66 -137 11 -986 21
-1115 14z m980 -264 c2126 -107 4098 -831 5753 -2112 648 -503 1295 -1156
1773 -1793 160 -212 206 -276 334 -470 1348 -2024 1837 -4437 1379 -6805 -324
-1673 -1132 -3251 -2317 -4526 -142 -152 -448 -457 -582 -579 -1623 -1479
-3724 -2391 -5940 -2580 -549 -46 -1207 -48 -1745 -5 -1176 95 -2312 388
-3400 875 -71 33 -247 118 -390 190 -1914 967 -3449 2512 -4361 4389 -1314
2706 -1205 5881 291 8492 795 1387 1936 2560 3325 3421 1406 871 3046 1391
4710 1493 264 16 270 16 635 18 187 1 428 -3 535 -8z"/>
<path d="M10880 20549 c-1300 -41 -2587 -337 -3775 -870 -205 -92 -654 -321
-849 -433 -1916 -1105 -3363 -2780 -4121 -4771 -304 -800 -483 -1608 -555
-2510 -18 -219 -24 -819 -11 -1060 44 -820 177 -1550 423 -2305 687 -2111
2153 -3921 4133 -5100 2164 -1289 4800 -1702 7302 -1144 1420 316 2767 952
3909 1844 512 400 1018 891 1445 1400 858 1024 1491 2255 1819 3535 451 1760
351 3614 -287 5310 -607 1613 -1678 3037 -3093 4112 -1496 1137 -3295 1816
-5215 1968 -190 15 -717 36 -835 33 -30 -1 -161 -5 -290 -9z m-6880 -6075 c0
-13 592 -2519 596 -2523 2 -2 6 -2 8 0 2 2 156 571 343 1264 l339 1260 219 0
219 0 335 -1260 c184 -693 336 -1262 338 -1264 1 -2 5 -2 8 1 3 2 143 572 312
1266 l308 1262 198 0 c151 0 197 -3 197 -12 0 -7 -182 -690 -403 -1518 l-403
-1505 -210 -3 -209 -2 -334 1232 c-388 1429 -361 1332 -370 1321 -4 -4 -165
-581 -357 -1281 l-349 -1272 -209 2 -210 3 -381 1490 c-210 820 -385 1502
-389 1518 l-6 27 205 0 c113 0 205 -3 205 -6z m8940 -214 l0 -220 -180 0 -180
0 0 220 0 220 180 0 180 0 0 -220z m-1220 -290 l0 -330 220 0 220 0 0 -155 0
-155 -220 0 -220 0 0 -732 c0 -709 1 -734 20 -765 37 -62 56 -67 245 -73 l170
-5 3 -159 3 -159 -228 6 c-262 8 -314 15 -400 57 -74 37 -114 86 -146 180 -21
64 -22 75 -27 855 l-5 790 -187 3 -188 2 0 155 0 155 190 0 190 0 0 330 0 330
180 0 180 0 0 -330z m-3117 -294 c204 -34 352 -111 498 -263 194 -200 300
-486 316 -845 l6 -138 -828 0 -828 0 6 -83 c21 -266 145 -467 349 -566 107
-52 194 -71 330 -71 202 0 333 47 444 158 46 47 104 152 124 225 l13 47 173 0
c200 0 186 10 153 -109 -84 -304 -299 -515 -609 -599 -87 -24 -112 -26 -300
-27 -212 0 -264 6 -385 47 -421 143 -668 555 -668 1113 1 458 218 842 578
1022 182 92 411 124 628 89z m2337 -174 l0 -189 -98 -6 c-333 -22 -547 -179
-641 -467 -49 -154 -53 -199 -58 -817 l-5 -583 -174 0 -174 0 0 1100 0 1100
165 0 165 0 0 -230 c0 -131 4 -230 9 -230 5 0 25 30 45 66 159 289 393 438
694 443 l72 1 0 -188z m3645 168 c178 -39 332 -138 423 -270 26 -38 50 -69 55
-70 4 0 7 70 7 155 l0 155 165 0 165 0 0 -1067 c0 -1242 -2 -1274 -89 -1493
-134 -336 -387 -495 -831 -525 -105 -7 -292 7 -410 31 -288 60 -512 241 -573
464 -9 30 -17 74 -20 98 l-5 42 178 0 178 0 7 -37 c23 -123 160 -238 340 -288
90 -24 303 -31 393 -11 114 24 196 69 282 156 141 140 193 287 212 597 6 100
7 190 4 200 -6 14 -14 6 -40 -40 -111 -195 -298 -308 -563 -339 -286 -33 -574
63 -766 255 -191 190 -291 449 -304 783 -21 535 181 940 562 1131 169 85 435
116 630 73z m2511 5 c226 -37 410 -128 559 -279 224 -227 334 -578 304 -973
-20 -268 -91 -468 -230 -653 -126 -168 -308 -284 -534 -341 -115 -30 -385 -37
-515 -15 -294 51 -523 203 -678 451 -64 103 -119 258 -148 416 -23 127 -23
380 0 514 93 554 482 889 1036 894 63 0 156 -6 206 -14z m-4156 -1135 l0
-1100 -180 0 -180 0 0 1100 0 1100 180 0 180 0 0 -1100z m-4746 -2209 c176
-47 311 -120 432 -234 143 -134 257 -341 288 -520 l7 -38 -77 3 -76 3 -19 75
c-71 279 -299 499 -604 580 -105 28 -297 37 -413 20 -287 -42 -534 -199 -694
-440 -71 -109 -99 -163 -136 -276 -141 -420 -88 -908 135 -1243 200 -300 532
-467 892 -448 132 7 210 27 326 83 296 142 508 444 550 782 l7 52 75 0 76 0
-7 -57 c-10 -86 -42 -205 -79 -298 -138 -343 -406 -584 -747 -671 -105 -27
-388 -27 -510 -1 -233 51 -411 147 -575 311 -159 160 -261 346 -325 594 -74
287 -65 630 26 917 109 348 354 623 668 751 161 65 279 84 511 80 154 -3 205
-8 269 -25z m8066 -1311 l0 -1280 -65 0 -65 0 0 195 c0 107 -3 195 -7 195 -5
0 -24 -28 -43 -63 -21 -37 -74 -101 -130 -157 -138 -138 -253 -192 -452 -208
-465 -39 -775 217 -864 716 -21 118 -20 359 1 482 37 215 113 377 235 501 128
130 275 199 465 218 342 34 626 -111 759 -389 l31 -65 3 568 2 567 65 0 65 0
0 -1280z m-6095 588 c206 -31 347 -139 408 -313 7 -19 13 -260 17 -690 5 -613
6 -662 23 -693 26 -47 73 -65 148 -56 l59 7 0 -55 c0 -54 -1 -56 -31 -62 -51
-10 -153 -7 -190 6 -97 32 -129 90 -137 245 -2 56 -8 103 -11 103 -4 0 -19
-24 -33 -53 -76 -155 -266 -289 -470 -332 -105 -23 -292 -21 -405 4 -265 58
-393 218 -393 491 0 196 66 325 213 421 115 75 254 107 592 139 313 30 388 50
452 124 38 42 53 107 53 224 0 130 -27 199 -102 268 -90 83 -224 124 -404 124
-329 0 -539 -160 -570 -432 l-7 -58 -67 0 -68 0 5 48 c16 160 67 278 162 373
72 72 145 115 257 149 127 38 322 45 499 18z m1774 12 c52 -6 115 -16 140 -24
197 -58 324 -192 384 -405 21 -74 22 -95 25 -763 l3 -688 -65 0 -65 0 -3 678
c-4 597 -6 684 -21 735 -48 165 -155 280 -307 333 -44 15 -83 19 -195 19 -121
0 -150 -3 -214 -24 -200 -66 -350 -230 -415 -455 -38 -131 -46 -260 -46 -798
l0 -488 -65 0 -65 0 0 920 0 920 65 0 65 0 0 -195 c0 -107 4 -195 8 -195 5 0
23 32 41 72 26 54 53 91 115 153 136 137 275 196 506 214 8 0 57 -4 109 -9z
m1896 -12 c205 -31 334 -128 403 -302 14 -36 17 -122 22 -701 5 -613 6 -662
23 -693 25 -46 74 -65 143 -56 l54 6 0 -55 c0 -64 -5 -67 -109 -67 -176 0
-241 76 -241 280 0 44 -3 80 -7 80 -5 0 -21 -26 -38 -57 -37 -71 -128 -170
-202 -219 -131 -87 -272 -125 -459 -125 -327 0 -529 118 -589 347 -19 70 -22
238 -5 309 17 73 66 158 124 213 131 124 264 164 666 202 250 23 306 33 377
67 100 47 133 118 133 289 0 249 -180 384 -511 384 -317 0 -518 -146 -562
-406 l-13 -79 -68 -3 -67 -3 6 53 c33 273 169 441 421 518 127 38 322 45 499
18z m3800 0 c206 -31 347 -139 408 -313 7 -19 13 -260 17 -690 5 -613 6 -662
23 -693 26 -47 73 -65 148 -56 l59 7 0 -55 c0 -54 -1 -56 -31 -62 -51 -10
-153 -7 -190 6 -97 32 -129 90 -137 245 -2 56 -8 103 -11 103 -4 0 -19 -24
-33 -53 -76 -155 -266 -289 -470 -332 -105 -23 -292 -21 -405 4 -265 58 -393
218 -393 491 0 196 66 325 213 421 115 75 254 107 592 139 313 30 388 50 452
124 38 42 53 107 53 224 0 130 -27 199 -102 268 -90 83 -224 124 -404 124
-329 0 -539 -160 -570 -432 l-7 -58 -67 0 -68 0 5 48 c16 160 67 278 162 373
72 72 145 115 257 149 127 38 322 45 499 18z"/>
<path d="M8312 13369 c-280 -33 -488 -255 -537 -576 l-7 -43 636 0 636 0 0 23
c0 12 -9 60 -20 106 -80 332 -366 530 -708 490z"/>
<path d="M14324 13369 c-231 -27 -414 -181 -500 -421 -70 -196 -72 -555 -2
-768 71 -219 205 -367 382 -422 100 -32 272 -32 371 -1 299 94 468 393 468
828 0 281 -68 481 -212 626 -128 128 -301 182 -507 158z"/>
<path d="M16812 13369 c-147 -19 -257 -74 -368 -185 -70 -69 -89 -95 -132
-185 -93 -193 -123 -408 -87 -639 42 -280 176 -483 386 -583 112 -54 169 -67
292 -67 442 0 732 405 678 945 -14 142 -41 237 -96 350 -128 259 -390 401
-673 364z"/>
<path d="M15270 9495 c-203 -45 -389 -221 -460 -435 -58 -171 -77 -437 -45
-611 38 -202 103 -337 220 -455 136 -138 279 -190 490 -181 178 8 288 57 417
188 63 64 85 95 127 181 141 290 141 663 -1 958 -44 90 -62 116 -132 185 -82
82 -160 131 -253 161 -69 22 -280 28 -363 9z"/>
<path d="M10429 8763 c-37 -44 -157 -71 -444 -98 -392 -38 -530 -82 -626 -201
-51 -64 -71 -119 -77 -215 -13 -238 95 -376 335 -425 94 -20 285 -14 378 11
130 36 259 127 342 243 97 135 123 246 123 518 0 101 -4 184 -9 184 -5 0 -15
-7 -22 -17z"/>
<path d="M14101 8766 c-38 -46 -162 -74 -446 -101 -326 -31 -465 -65 -566
-139 -55 -40 -104 -112 -124 -180 -22 -72 -19 -200 5 -279 50 -162 221 -256
465 -257 222 0 366 54 505 191 89 86 153 213 175 343 16 97 21 436 6 436 -5 0
-14 -6 -20 -14z"/>
<path d="M17899 8763 c-37 -44 -157 -71 -444 -98 -392 -38 -530 -82 -626 -201
-51 -64 -71 -119 -77 -215 -13 -238 95 -376 335 -425 94 -20 285 -14 378 11
130 36 259 127 342 243 97 135 123 246 123 518 0 101 -4 184 -9 184 -5 0 -15
-7 -22 -17z"/>
</g>
</svg>
