<?xml version="1.0" standalone="no"?>
<!DOCTYPE svg PUBLIC "-//W3C//DTD SVG 20010904//EN"
 "http://www.w3.org/TR/2001/REC-SVG-20010904/DTD/svg10.dtd">
<svg version="1.0" xmlns="http://www.w3.org/2000/svg"
 width="1080.000000pt" height="1080.000000pt" viewBox="0 0 1080.000000 1080.000000"
 preserveAspectRatio="xMidYMid meet">
<metadata>
Created by potrace 1.14, written by Peter Selinger 2001-2017
</metadata>
<g transform="translate(0.000000,1080.000000) scale(0.100000,-0.100000)"
fill="#000000" stroke="none">
<path d="M0 5400 l0 -5400 5400 0 5400 0 0 5400 0 5400 -5400 0 -5400 0 0
-5400z m3100 953 c288 -1220 530 -2246 538 -2280 8 -35 19 -63 26 -63 6 0 255
927 611 2278 l600 2277 535 0 535 0 583 -2275 c321 -1251 585 -2277 588 -2279
2 -3 8 0 13 5 5 5 258 1032 562 2282 l553 2272 529 0 c419 0 528 -3 525 -12
-3 -7 -373 -1348 -823 -2981 l-819 -2967 -529 2 -530 3 -596 2277 c-340 1300
-601 2278 -607 2278 -6 0 -31 -73 -55 -162 -24 -90 -298 -1115 -609 -2278
l-565 -2115 -539 0 -539 0 -778 2955 c-428 1625 -781 2965 -784 2978 l-5 22
528 0 528 0 524 -2217z"/>
</g>
</svg>
